<?xml version="1.0" encoding="UTF-8"?>
<svg id="Layer_1" data-name="Layer 1" xmlns="http://www.w3.org/2000/svg" version="1.1" viewBox="0 0 612 792">
  <defs>
    <style>
      .cls-1, .cls-3 {
        fill: #0a0f17;
        stroke: #0a0f17;
      }

      .cls-2{
        stroke: #fff;
      }

      .cls-1, .cls-2, .cls-3, .cls-4, .cls-5, .cls-6, .cls-7, .cls-8, .cls-9 {
        stroke-miterlimit: 10;
      }

      .cls-1, .cls-2, .cls-3, .cls-4, .cls-5, .cls-7, .cls-8, .cls-9 {
        stroke-width: 3px;
      }

      .cls-2, .cls-4 {
        fill: #0a0f17;
      }

      .cls-3, .cls-6, .cls-9 {
        fill: none;
      }

      .cls-4, .cls-5, .cls-6, .cls-7, .cls-8, .cls-9 {
        stroke: #0a0f17;
      }

      .cls-5 {
        fill: #6d91cb;
      }

      .cls-6 {
        stroke-width: 5px;
      }

      .cls-7 {
        fill: #fed607;
      }

      .cls-8 {
        fill: #fec40e;
      }
    </style>
  </defs>
  <line class="cls-3" x1="193.27" y1="250.76" x2="193.27" y2="281.41"/>
  <path class="cls-6" d="M542.56,394.9c-5.31-310.96-467.85-310.91-473.12,0,5.31,310.95,467.85,310.9,473.12,0Z"/>
  <path class="cls-4" d="M428.72,245.26l-122.58-65.88-122.58,65.88,63.92,36.16v-35.85c0-10.53,26.27-24.15,58.67-24.15s58.66,13.93,58.66,24.15v35.85l63.92-36.16Z"/>
  <path class="cls-2" d="M364.81,244.58v58.33c-1.44-.93-2.9-1.8-4.39-2.65-16.01-9.24-34.6-14.52-54.41-14.52s-38.55,5.32-54.62,14.63c-1.34.76-2.63,1.55-3.92,2.37v-58.16c0-9.14,21.59-20.74,49.74-22.82,1.14-.08,2.33-.17,3.5-.21.81-.04,1.59-.06,2.42-.08,1-.02,1.99-.04,3.01-.04,2.01,0,4.03.04,6,.15,29.58,1.51,52.67,13.82,52.67,23.01Z"/>
  <path class="cls-5" d="M455.86,540.57c-3.88,8.53-20.42,13.96-40.32,22.74-13.05,5.82-40.82,15.77-46.37,21.32-5.56,5.56-7.11,11.24-8.91,23.39l-33.46-33.46s12.4-13.7,13.3-19.76c.64-9.43,12.53-27.52,16.15-30.63,7.62-8.4,19.51-13.56,29.97-15.76,12.92-1.55,40.82-19.9,57.49-34.5,4.77-8.4,7.93-44.27,14-50.09,5.19-4.66,11.29-4.69,14.13.99,6.66,13.19,6.79,94.06-15.99,115.76Z"/>
  <path class="cls-5" d="M139.27,424.8c-6.66,13.19-6.8,94.07,15.99,115.77,3.88,8.53,20.41,13.95,40.31,22.74,13.05,5.81,40.83,15.76,46.38,21.32,5.56,5.56,7.11,11.24,8.91,23.38l33.46-33.46s-12.4-13.69-13.31-19.77c-.65-9.43-12.53-27.52-16.15-30.62-7.62-8.4-19.51-13.57-29.97-15.76-12.92-1.55-40.83-19.9-57.49-34.49-4.78-8.4-7.93-44.28-14-50.09-5.18-4.67-11.29-4.7-14.13.99"/>
  <polygon class="cls-1" points="196.38 292.94 203.04 311.8 183.5 311.8 190.16 292.94 183.5 281.41 203.04 281.41 196.38 292.94"/>
  <path class="cls-8" d="M415.31,394.57v.18c0,19.82-5.29,38.41-14.55,54.45-4.77,8.3-10.6,15.91-17.32,22.65-6.71,6.72-14.33,12.59-22.6,17.39-16.05,9.33-34.69,14.67-54.58,14.7h-.1c-19.85,0-38.49-5.31-54.52-14.59-8.28-4.79-15.9-10.62-22.62-17.35-6.74-6.72-12.6-14.31-17.39-22.6-9.33-16.05-14.66-34.71-14.66-54.6v-.04c0-19.87,5.31-38.51,14.61-54.56,4.77-8.3,10.62-15.91,17.35-22.63,5.64-5.64,11.89-10.68,18.68-14.99,1.29-.83,2.59-1.61,3.92-2.38,16.07-9.31,34.71-14.62,54.62-14.62s38.4,5.27,54.4,14.52c1.49.85,2.95,1.72,4.4,2.65,6.59,4.22,12.72,9.16,18.26,14.68,6.74,6.72,12.6,14.29,17.39,22.58,4.73,8.17,8.46,16.98,10.96,26.31,2.44,9.02,3.73,18.49,3.75,28.27Z"/>
  <path class="cls-7" d="M341.06,423.64c0,14.69-8.95,27.78-27.33,31.95v16.81h-15.44v-15.48c-10.54-.38-21.56-3.5-27.35-7.34l3.77-12.55c6,3.69,14.46,6.83,23.58,7.44,1.06.08,2.16.13,3.24.13,4.69,0,8.78-.76,12.19-2.16,7.74-3.14,12.04-9.5,12.04-17.62s-3.56-13.72-12.04-18.53c-2.74-1.55-5.98-3.01-9.8-4.5-1.97-.68-3.84-1.42-5.64-2.18-15.56-6.62-24.94-16.01-24.94-30.64s9.56-25.91,24.94-29.92v-21.67h15.44v20.19c10.37.4,17.96,2.95,22.69,5.62l-4.11,12.21c-3.35-1.82-9.84-4.75-18.57-5.39-1.12-.08-2.25-.13-3.44-.13-4.9,0-8.88.93-12,2.42-6.95,3.33-9.82,9.5-9.82,14.95,0,7.17,3.1,11.94,9.82,16.12,3.44,2.14,7.8,4.13,13.21,6.23.74.28,1.48.59,2.23.87,18.11,7.42,27.33,16.79,27.33,33.16Z"/>
  <line class="cls-9" x1="306" y1="285.73" x2="306" y2="296.01"/>
  <line class="cls-9" x1="277.74" y1="289.45" x2="280.4" y2="299.38"/>
  <line class="cls-9" x1="251.4" y1="300.37" x2="256.54" y2="309.27"/>
  <line class="cls-9" x1="228.78" y1="317.73" x2="236.05" y2="324.99"/>
  <line class="cls-9" x1="211.44" y1="340.35" x2="220.34" y2="345.49"/>
  <line class="cls-9" x1="200.53" y1="366.69" x2="210.46" y2="369.35"/>
  <line class="cls-9" x1="196.83" y1="394.96" x2="207.1" y2="394.96"/>
  <line class="cls-9" x1="200.56" y1="423.22" x2="210.49" y2="420.56"/>
  <line class="cls-9" x1="211.49" y1="449.56" x2="220.38" y2="444.41"/>
  <line class="cls-9" x1="228.86" y1="472.16" x2="236.12" y2="464.89"/>
  <line class="cls-9" x1="251.49" y1="489.5" x2="256.62" y2="480.6"/>
  <line class="cls-9" x1="277.84" y1="500.39" x2="280.49" y2="490.46"/>
  <line class="cls-9" x1="334.37" y1="500.33" x2="331.7" y2="490.41"/>
  <line class="cls-9" x1="360.7" y1="489.39" x2="355.55" y2="480.5"/>
  <line class="cls-9" x1="383.3" y1="472.01" x2="376.02" y2="464.75"/>
  <line class="cls-9" x1="400.62" y1="449.37" x2="391.72" y2="444.25"/>
  <line class="cls-9" x1="411.5" y1="423.02" x2="401.57" y2="420.37"/>
  <line class="cls-9" x1="415.18" y1="394.75" x2="404.9" y2="394.76"/>
  <line class="cls-9" x1="411.41" y1="366.49" x2="401.49" y2="369.16"/>
  <line class="cls-9" x1="400.46" y1="340.16" x2="391.57" y2="345.32"/>
  <line class="cls-9" x1="383.07" y1="317.58" x2="375.82" y2="324.85"/>
  <line class="cls-9" x1="360.42" y1="300.26" x2="355.3" y2="309.17"/>
  <line class="cls-9" x1="334.06" y1="289.4" x2="331.42" y2="299.33"/>
  <path class="cls-9" d="M443.71,473.9s21.21-19.57,15.65,9.24c-8.27,11.11-36.69,29.71-50.9,57.62"/>
  <path class="cls-9" d="M167.4,473.91s-21.21-19.57-15.65,9.24c8.27,11.11,36.69,29.71,50.9,57.62"/>
</svg>